<mxfile host="app.diagrams.net" agent="Mozilla/5.0 (Windows NT 10.0; Win64; x64) AppleWebKit/537.36 (KHTML, like Gecko) Chrome/136.0.0.0 Safari/537.36 Edg/136.0.0.0" version="27.1.1">
  <diagram name="第 1 页" id="sHijxUhzkt0KrCc44Swx">
    <mxGraphModel dx="1807" dy="1045" grid="1" gridSize="10" guides="1" tooltips="1" connect="1" arrows="1" fold="1" page="1" pageScale="1" pageWidth="827" pageHeight="1169" math="0" shadow="0">
      <root>
        <mxCell id="0" />
        <mxCell id="1" parent="0" />
        <mxCell id="0lxIgB4Fh4-dv3Joqvid-2" style="edgeStyle=orthogonalEdgeStyle;rounded=0;orthogonalLoop=1;jettySize=auto;html=1;exitX=0.5;exitY=1;exitDx=0;exitDy=0;entryX=0.5;entryY=0;entryDx=0;entryDy=0;curved=1;" parent="1" source="0lxIgB4Fh4-dv3Joqvid-3" target="0lxIgB4Fh4-dv3Joqvid-13" edge="1">
          <mxGeometry relative="1" as="geometry" />
        </mxCell>
        <mxCell id="0lxIgB4Fh4-dv3Joqvid-3" value="Spatial Stream (2D)" style="whiteSpace=wrap;strokeWidth=2;verticalAlign=top;fontSize=24;fillColor=#d5e8d4;strokeColor=#82b366;fontStyle=1" parent="1" vertex="1">
          <mxGeometry x="1174.495" y="657.5394736842105" width="523" height="760.6074493927125" as="geometry" />
        </mxCell>
        <mxCell id="0lxIgB4Fh4-dv3Joqvid-4" style="edgeStyle=orthogonalEdgeStyle;rounded=0;orthogonalLoop=1;jettySize=auto;html=1;exitX=0.5;exitY=1;exitDx=0;exitDy=0;entryX=0.5;entryY=0;entryDx=0;entryDy=0;" parent="0lxIgB4Fh4-dv3Joqvid-3" source="0lxIgB4Fh4-dv3Joqvid-5" target="0lxIgB4Fh4-dv3Joqvid-7" edge="1">
          <mxGeometry relative="1" as="geometry" />
        </mxCell>
        <mxCell id="0lxIgB4Fh4-dv3Joqvid-5" value="Conv2d(1→32, kernel=3)&#xa;            BatchNorm&#xa;            ReLU&#xa;            MaxPool2d" style="whiteSpace=wrap;strokeWidth=2;fontSize=24;fontStyle=1" parent="0lxIgB4Fh4-dv3Joqvid-3" vertex="1">
          <mxGeometry x="86.53" y="62.46" width="349.95" height="131.57" as="geometry" />
        </mxCell>
        <mxCell id="0lxIgB4Fh4-dv3Joqvid-6" style="edgeStyle=orthogonalEdgeStyle;rounded=0;orthogonalLoop=1;jettySize=auto;html=1;exitX=0.5;exitY=1;exitDx=0;exitDy=0;entryX=0.5;entryY=0;entryDx=0;entryDy=0;" parent="0lxIgB4Fh4-dv3Joqvid-3" source="0lxIgB4Fh4-dv3Joqvid-7" target="0lxIgB4Fh4-dv3Joqvid-9" edge="1">
          <mxGeometry relative="1" as="geometry" />
        </mxCell>
        <mxCell id="0lxIgB4Fh4-dv3Joqvid-7" value="Inception2d Block" style="whiteSpace=wrap;strokeWidth=2;fontSize=24;fontStyle=1" parent="0lxIgB4Fh4-dv3Joqvid-3" vertex="1">
          <mxGeometry x="155.935" y="232.46052631578948" width="211.13" height="74.57" as="geometry" />
        </mxCell>
        <mxCell id="0lxIgB4Fh4-dv3Joqvid-8" style="edgeStyle=orthogonalEdgeStyle;rounded=0;orthogonalLoop=1;jettySize=auto;html=1;exitX=0.5;exitY=1;exitDx=0;exitDy=0;entryX=0.5;entryY=0;entryDx=0;entryDy=0;" parent="0lxIgB4Fh4-dv3Joqvid-3" source="0lxIgB4Fh4-dv3Joqvid-9" target="0lxIgB4Fh4-dv3Joqvid-11" edge="1">
          <mxGeometry relative="1" as="geometry" />
        </mxCell>
        <mxCell id="0lxIgB4Fh4-dv3Joqvid-9" value="Inception2d Block" style="whiteSpace=wrap;strokeWidth=2;fontSize=24;fontStyle=1" parent="0lxIgB4Fh4-dv3Joqvid-3" vertex="1">
          <mxGeometry x="151.97" y="349.4605263157895" width="219.06" height="72.65" as="geometry" />
        </mxCell>
        <mxCell id="0lxIgB4Fh4-dv3Joqvid-10" style="edgeStyle=orthogonalEdgeStyle;rounded=0;orthogonalLoop=1;jettySize=auto;html=1;exitX=0.5;exitY=1;exitDx=0;exitDy=0;entryX=0.5;entryY=0;entryDx=0;entryDy=0;" parent="0lxIgB4Fh4-dv3Joqvid-3" source="0lxIgB4Fh4-dv3Joqvid-11" target="0lxIgB4Fh4-dv3Joqvid-12" edge="1">
          <mxGeometry relative="1" as="geometry" />
        </mxCell>
        <mxCell id="0lxIgB4Fh4-dv3Joqvid-11" value="AdaptiveAvgPool2d(1)" style="whiteSpace=wrap;strokeWidth=2;fontSize=24;fontStyle=1" parent="0lxIgB4Fh4-dv3Joqvid-3" vertex="1">
          <mxGeometry x="134.025" y="477.4605263157895" width="254.95" height="82.4" as="geometry" />
        </mxCell>
        <mxCell id="0lxIgB4Fh4-dv3Joqvid-12" value="FC: 32→64" style="whiteSpace=wrap;strokeWidth=2;fontSize=24;fontStyle=1" parent="0lxIgB4Fh4-dv3Joqvid-3" vertex="1">
          <mxGeometry x="158.5" y="622.4615789473684" width="206" height="58.43454790823211" as="geometry" />
        </mxCell>
        <mxCell id="0lxIgB4Fh4-dv3Joqvid-13" value="Concat" style="whiteSpace=wrap;strokeWidth=2;fontSize=24;fontStyle=1" parent="1" vertex="1">
          <mxGeometry x="985" y="1505" width="110" height="65" as="geometry" />
        </mxCell>
        <mxCell id="0lxIgB4Fh4-dv3Joqvid-14" value="Classifier&#xa;        FC: 128→4" style="whiteSpace=wrap;strokeWidth=2;fontSize=24;fontStyle=1" parent="1" vertex="1">
          <mxGeometry x="840.5" y="1610" width="399" height="90" as="geometry" />
        </mxCell>
        <mxCell id="0lxIgB4Fh4-dv3Joqvid-15" value="Temporal Input&#xa;        (N, 1, 1024)" style="shape=cylinder3;boundedLbl=1;backgroundOutline=1;size=10;strokeWidth=2;whiteSpace=wrap;fontSize=24;fillColor=#dae8fc;strokeColor=#6c8ebf;fontStyle=1" parent="1" vertex="1">
          <mxGeometry x="635.75" y="320" width="190.5" height="230.32" as="geometry" />
        </mxCell>
        <mxCell id="0lxIgB4Fh4-dv3Joqvid-16" style="edgeStyle=orthogonalEdgeStyle;rounded=0;orthogonalLoop=1;jettySize=auto;html=1;entryX=0.5;entryY=0;entryDx=0;entryDy=0;exitX=0.5;exitY=1;exitDx=0;exitDy=0;elbow=vertical;curved=1;" parent="1" source="0lxIgB4Fh4-dv3Joqvid-17" target="0lxIgB4Fh4-dv3Joqvid-13" edge="1">
          <mxGeometry relative="1" as="geometry" />
        </mxCell>
        <mxCell id="0lxIgB4Fh4-dv3Joqvid-17" value="Temporal Stream (1D)" style="whiteSpace=wrap;strokeWidth=2;verticalAlign=top;fontSize=24;fillColor=#dae8fc;strokeColor=#6c8ebf;fontStyle=1" parent="1" vertex="1">
          <mxGeometry x="391.5" y="640.4856545209176" width="679" height="794.7098515519567" as="geometry" />
        </mxCell>
        <mxCell id="0lxIgB4Fh4-dv3Joqvid-18" style="edgeStyle=orthogonalEdgeStyle;rounded=0;orthogonalLoop=1;jettySize=auto;html=1;exitX=0.5;exitY=1;exitDx=0;exitDy=0;entryX=0.5;entryY=0;entryDx=0;entryDy=0;" parent="0lxIgB4Fh4-dv3Joqvid-17" source="0lxIgB4Fh4-dv3Joqvid-19" target="0lxIgB4Fh4-dv3Joqvid-21" edge="1">
          <mxGeometry relative="1" as="geometry" />
        </mxCell>
        <mxCell id="0lxIgB4Fh4-dv3Joqvid-19" value="Conv1d(1→32, kernel=7, stride=2)&#xa;            BatchNorm&#xa;            ReLU&#xa;            MaxPool1d" style="whiteSpace=wrap;strokeWidth=2;fontSize=24;fontStyle=1" parent="0lxIgB4Fh4-dv3Joqvid-17" vertex="1">
          <mxGeometry x="110.63" y="53.53" width="457.75" height="120.85" as="geometry" />
        </mxCell>
        <mxCell id="0lxIgB4Fh4-dv3Joqvid-20" style="edgeStyle=orthogonalEdgeStyle;rounded=0;orthogonalLoop=1;jettySize=auto;html=1;exitX=0.5;exitY=1;exitDx=0;exitDy=0;entryX=0.5;entryY=0;entryDx=0;entryDy=0;" parent="0lxIgB4Fh4-dv3Joqvid-17" source="0lxIgB4Fh4-dv3Joqvid-21" target="0lxIgB4Fh4-dv3Joqvid-23" edge="1">
          <mxGeometry relative="1" as="geometry" />
        </mxCell>
        <mxCell id="0lxIgB4Fh4-dv3Joqvid-21" value="Inception1D Block" style="whiteSpace=wrap;strokeWidth=2;fontSize=24;fontStyle=1" parent="0lxIgB4Fh4-dv3Joqvid-17" vertex="1">
          <mxGeometry x="185.5" y="199.5143454790824" width="308" height="86.85" as="geometry" />
        </mxCell>
        <mxCell id="0lxIgB4Fh4-dv3Joqvid-22" style="edgeStyle=orthogonalEdgeStyle;rounded=0;orthogonalLoop=1;jettySize=auto;html=1;exitX=0.5;exitY=1;exitDx=0;exitDy=0;entryX=0.5;entryY=0;entryDx=0;entryDy=0;" parent="0lxIgB4Fh4-dv3Joqvid-17" source="0lxIgB4Fh4-dv3Joqvid-23" target="0lxIgB4Fh4-dv3Joqvid-27" edge="1">
          <mxGeometry relative="1" as="geometry" />
        </mxCell>
        <mxCell id="0lxIgB4Fh4-dv3Joqvid-23" value="MaxPool1d" style="whiteSpace=wrap;strokeWidth=2;fontSize=24;fontStyle=1" parent="0lxIgB4Fh4-dv3Joqvid-17" vertex="1">
          <mxGeometry x="189" y="311.5143454790824" width="301" height="80.85" as="geometry" />
        </mxCell>
        <mxCell id="0lxIgB4Fh4-dv3Joqvid-24" style="edgeStyle=orthogonalEdgeStyle;rounded=0;orthogonalLoop=1;jettySize=auto;html=1;exitX=0.5;exitY=1;exitDx=0;exitDy=0;entryX=0.5;entryY=0;entryDx=0;entryDy=0;" parent="0lxIgB4Fh4-dv3Joqvid-17" source="0lxIgB4Fh4-dv3Joqvid-25" target="0lxIgB4Fh4-dv3Joqvid-28" edge="1">
          <mxGeometry relative="1" as="geometry" />
        </mxCell>
        <mxCell id="0lxIgB4Fh4-dv3Joqvid-25" value="AdaptiveAvgPool1d(1)" style="whiteSpace=wrap;strokeWidth=2;fontSize=24;fontStyle=1" parent="0lxIgB4Fh4-dv3Joqvid-17" vertex="1">
          <mxGeometry x="190.5" y="549.5143454790824" width="298" height="110.85" as="geometry" />
        </mxCell>
        <mxCell id="0lxIgB4Fh4-dv3Joqvid-26" style="edgeStyle=orthogonalEdgeStyle;rounded=0;orthogonalLoop=1;jettySize=auto;html=1;exitX=0.5;exitY=1;exitDx=0;exitDy=0;entryX=0.5;entryY=0;entryDx=0;entryDy=0;" parent="0lxIgB4Fh4-dv3Joqvid-17" source="0lxIgB4Fh4-dv3Joqvid-27" target="0lxIgB4Fh4-dv3Joqvid-25" edge="1">
          <mxGeometry relative="1" as="geometry" />
        </mxCell>
        <mxCell id="0lxIgB4Fh4-dv3Joqvid-27" value="Inception1D Block" style="whiteSpace=wrap;strokeWidth=2;fontSize=24;fontStyle=1" parent="0lxIgB4Fh4-dv3Joqvid-17" vertex="1">
          <mxGeometry x="190.5" y="419.5143454790824" width="298" height="100.85" as="geometry" />
        </mxCell>
        <mxCell id="0lxIgB4Fh4-dv3Joqvid-28" value="FC: 288→64" style="whiteSpace=wrap;strokeWidth=2;fontSize=24;fontStyle=1" parent="0lxIgB4Fh4-dv3Joqvid-17" vertex="1">
          <mxGeometry x="205.5" y="689.51" width="268" height="60.84" as="geometry" />
        </mxCell>
        <mxCell id="0lxIgB4Fh4-dv3Joqvid-29" value="Spatial Input&#xa;        (N, 1, 32, 32)" style="shape=cylinder3;boundedLbl=1;backgroundOutline=1;size=10;strokeWidth=2;whiteSpace=wrap;fontSize=24;fillColor=#d5e8d4;strokeColor=#82b366;fontStyle=1" parent="1" vertex="1">
          <mxGeometry x="1349.74" y="310" width="172.51" height="223.41" as="geometry" />
        </mxCell>
        <mxCell id="0lxIgB4Fh4-dv3Joqvid-30" value="" style="curved=1;startArrow=none;endArrow=block;exitX=0.5;exitY=0.99;entryX=0.5;entryY=0;rounded=0;" parent="1" source="0lxIgB4Fh4-dv3Joqvid-13" target="0lxIgB4Fh4-dv3Joqvid-14" edge="1">
          <mxGeometry relative="1" as="geometry">
            <Array as="points" />
          </mxGeometry>
        </mxCell>
        <mxCell id="0lxIgB4Fh4-dv3Joqvid-31" value="" style="curved=1;startArrow=none;endArrow=block;exitX=0.5;exitY=1;entryX=0.5;entryY=0;rounded=0;" parent="1" source="0lxIgB4Fh4-dv3Joqvid-15" target="0lxIgB4Fh4-dv3Joqvid-17" edge="1">
          <mxGeometry relative="1" as="geometry">
            <Array as="points" />
          </mxGeometry>
        </mxCell>
        <mxCell id="0lxIgB4Fh4-dv3Joqvid-32" value="" style="curved=1;startArrow=none;endArrow=block;exitX=0.5;exitY=1;entryX=0.5;entryY=0;rounded=0;" parent="1" source="0lxIgB4Fh4-dv3Joqvid-29" target="0lxIgB4Fh4-dv3Joqvid-3" edge="1">
          <mxGeometry relative="1" as="geometry">
            <Array as="points" />
          </mxGeometry>
        </mxCell>
        <mxCell id="24eTkejY1qJN395DCYq1-84" value="" style="group;rotation=0;" vertex="1" connectable="0" parent="1">
          <mxGeometry x="490" y="1920" width="1125.5" height="328" as="geometry" />
        </mxCell>
        <mxCell id="24eTkejY1qJN395DCYq1-85" value="" style="shape=image;verticalLabelPosition=bottom;labelBackgroundColor=default;verticalAlign=top;imageAspect=0;image=https://broadbandlibrary.com/wp-content/uploads/2022/08/Figure.7-768x239.jpg;clipPath=inset(0% 0% 0% 14%);rotation=0;" vertex="1" parent="24eTkejY1qJN395DCYq1-84">
          <mxGeometry x="310" y="57" width="670" height="269" as="geometry" />
        </mxCell>
        <mxCell id="24eTkejY1qJN395DCYq1-87" value="" style="rounded=0;whiteSpace=wrap;html=1;fillColor=none;strokeColor=#000000;strokeWidth=4;rotation=0;" vertex="1" parent="24eTkejY1qJN395DCYq1-84">
          <mxGeometry x="537" y="58" width="250" height="270" as="geometry" />
        </mxCell>
        <mxCell id="24eTkejY1qJN395DCYq1-90" value="" style="endArrow=none;html=1;rounded=0;" edge="1" parent="24eTkejY1qJN395DCYq1-84">
          <mxGeometry width="50" height="50" relative="1" as="geometry">
            <mxPoint x="536" y="58" as="sourcePoint" />
            <mxPoint x="536" y="8" as="targetPoint" />
          </mxGeometry>
        </mxCell>
        <mxCell id="24eTkejY1qJN395DCYq1-93" value="&lt;font style=&quot;font-size: 17px;&quot;&gt;1024&lt;/font&gt;" style="text;html=1;align=center;verticalAlign=middle;whiteSpace=wrap;rounded=0;rotation=0;" vertex="1" parent="24eTkejY1qJN395DCYq1-84">
          <mxGeometry x="639" y="7" width="60" height="30" as="geometry" />
        </mxCell>
        <mxCell id="24eTkejY1qJN395DCYq1-94" value="" style="endArrow=none;html=1;rounded=0;" edge="1" parent="24eTkejY1qJN395DCYq1-84">
          <mxGeometry width="50" height="50" relative="1" as="geometry">
            <mxPoint x="536" y="57" as="sourcePoint" />
            <mxPoint x="536" y="7" as="targetPoint" />
          </mxGeometry>
        </mxCell>
        <mxCell id="24eTkejY1qJN395DCYq1-95" value="" style="endArrow=none;html=1;rounded=0;" edge="1" parent="24eTkejY1qJN395DCYq1-84">
          <mxGeometry width="50" height="50" relative="1" as="geometry">
            <mxPoint x="786" y="57" as="sourcePoint" />
            <mxPoint x="786" y="7" as="targetPoint" />
          </mxGeometry>
        </mxCell>
        <mxCell id="24eTkejY1qJN395DCYq1-96" value="" style="endArrow=classic;html=1;rounded=0;exitX=1;exitY=0.5;exitDx=0;exitDy=0;" edge="1" parent="24eTkejY1qJN395DCYq1-84" source="24eTkejY1qJN395DCYq1-93">
          <mxGeometry width="50" height="50" relative="1" as="geometry">
            <mxPoint x="707" y="23" as="sourcePoint" />
            <mxPoint x="787" y="22" as="targetPoint" />
          </mxGeometry>
        </mxCell>
        <mxCell id="24eTkejY1qJN395DCYq1-97" value="" style="endArrow=classic;html=1;rounded=0;" edge="1" parent="24eTkejY1qJN395DCYq1-84">
          <mxGeometry width="50" height="50" relative="1" as="geometry">
            <mxPoint x="637" y="23" as="sourcePoint" />
            <mxPoint x="537" y="23" as="targetPoint" />
          </mxGeometry>
        </mxCell>
        <mxCell id="24eTkejY1qJN395DCYq1-99" value="" style="endArrow=none;html=1;rounded=0;" edge="1" parent="24eTkejY1qJN395DCYq1-84">
          <mxGeometry width="50" height="50" relative="1" as="geometry">
            <mxPoint x="535.5699999999999" y="58" as="sourcePoint" />
            <mxPoint x="535.5699999999999" y="8" as="targetPoint" />
          </mxGeometry>
        </mxCell>
        <mxCell id="24eTkejY1qJN395DCYq1-98" value="&lt;font style=&quot;font-size: 34px;&quot;&gt;......&lt;/font&gt;" style="text;html=1;align=center;verticalAlign=middle;whiteSpace=wrap;rounded=0;rotation=0;" vertex="1" parent="24eTkejY1qJN395DCYq1-84">
          <mxGeometry x="280" y="7" width="290" height="30" as="geometry" />
        </mxCell>
        <mxCell id="24eTkejY1qJN395DCYq1-101" value="" style="group;rotation=-180;" vertex="1" connectable="0" parent="1">
          <mxGeometry x="880" y="2310" width="520" height="340" as="geometry" />
        </mxCell>
        <mxCell id="24eTkejY1qJN395DCYq1-102" value="" style="shape=image;verticalLabelPosition=bottom;labelBackgroundColor=default;verticalAlign=top;imageAspect=0;image=https://broadbandlibrary.com/wp-content/uploads/2022/08/Figure.7-768x239.jpg;clipPath=inset(0% 56.33% 0% 14%);rotation=-180;" vertex="1" parent="24eTkejY1qJN395DCYq1-101">
          <mxGeometry width="520" height="269" as="geometry" />
        </mxCell>
        <mxCell id="24eTkejY1qJN395DCYq1-103" style="edgeStyle=orthogonalEdgeStyle;rounded=0;orthogonalLoop=1;jettySize=auto;html=1;exitX=0;exitY=0.5;exitDx=0;exitDy=0;" edge="1" parent="24eTkejY1qJN395DCYq1-101" source="24eTkejY1qJN395DCYq1-104">
          <mxGeometry relative="1" as="geometry">
            <mxPoint x="66" y="303" as="targetPoint" />
            <mxPoint x="76" y="303" as="sourcePoint" />
          </mxGeometry>
        </mxCell>
        <mxCell id="24eTkejY1qJN395DCYq1-166" style="edgeStyle=orthogonalEdgeStyle;rounded=0;orthogonalLoop=1;jettySize=auto;html=1;exitX=0.5;exitY=1;exitDx=0;exitDy=0;" edge="1" parent="24eTkejY1qJN395DCYq1-101" source="24eTkejY1qJN395DCYq1-104">
          <mxGeometry relative="1" as="geometry">
            <mxPoint x="140" y="610" as="targetPoint" />
            <Array as="points">
              <mxPoint x="98" y="610" />
            </Array>
          </mxGeometry>
        </mxCell>
        <mxCell id="24eTkejY1qJN395DCYq1-104" value="&lt;font&gt;32&lt;/font&gt;" style="text;html=1;align=center;verticalAlign=middle;whiteSpace=wrap;rounded=0;rotation=0;" vertex="1" parent="24eTkejY1qJN395DCYq1-101">
          <mxGeometry x="83" y="293" width="30" height="19" as="geometry" />
        </mxCell>
        <mxCell id="24eTkejY1qJN395DCYq1-105" value="" style="endArrow=none;html=1;rounded=0;" edge="1" parent="24eTkejY1qJN395DCYq1-101">
          <mxGeometry width="50" height="50" relative="1" as="geometry">
            <mxPoint x="131" y="270" as="sourcePoint" />
            <mxPoint x="131" y="320" as="targetPoint" />
          </mxGeometry>
        </mxCell>
        <mxCell id="24eTkejY1qJN395DCYq1-106" value="" style="endArrow=none;html=1;rounded=0;" edge="1" parent="24eTkejY1qJN395DCYq1-101">
          <mxGeometry width="50" height="50" relative="1" as="geometry">
            <mxPoint x="66" y="270" as="sourcePoint" />
            <mxPoint x="66" y="320" as="targetPoint" />
          </mxGeometry>
        </mxCell>
        <mxCell id="24eTkejY1qJN395DCYq1-107" value="" style="endArrow=classic;html=1;rounded=0;" edge="1" parent="24eTkejY1qJN395DCYq1-101" source="24eTkejY1qJN395DCYq1-104">
          <mxGeometry width="50" height="50" relative="1" as="geometry">
            <mxPoint x="120" y="303" as="sourcePoint" />
            <mxPoint x="130" y="303" as="targetPoint" />
          </mxGeometry>
        </mxCell>
        <mxCell id="24eTkejY1qJN395DCYq1-108" value="" style="endArrow=none;html=1;rounded=0;" edge="1" parent="24eTkejY1qJN395DCYq1-101">
          <mxGeometry width="50" height="50" relative="1" as="geometry">
            <mxPoint x="66" y="271" as="sourcePoint" />
            <mxPoint x="66" y="321" as="targetPoint" />
          </mxGeometry>
        </mxCell>
        <mxCell id="24eTkejY1qJN395DCYq1-109" style="edgeStyle=orthogonalEdgeStyle;rounded=0;orthogonalLoop=1;jettySize=auto;html=1;exitX=0;exitY=0.5;exitDx=0;exitDy=0;" edge="1" parent="24eTkejY1qJN395DCYq1-101" source="24eTkejY1qJN395DCYq1-110">
          <mxGeometry relative="1" as="geometry">
            <mxPoint x="1" y="303" as="targetPoint" />
            <mxPoint x="11" y="303" as="sourcePoint" />
          </mxGeometry>
        </mxCell>
        <mxCell id="24eTkejY1qJN395DCYq1-167" style="edgeStyle=orthogonalEdgeStyle;rounded=0;orthogonalLoop=1;jettySize=auto;html=1;" edge="1" parent="24eTkejY1qJN395DCYq1-101" source="24eTkejY1qJN395DCYq1-110">
          <mxGeometry relative="1" as="geometry">
            <mxPoint x="140" y="680" as="targetPoint" />
            <Array as="points">
              <mxPoint x="32" y="680" />
            </Array>
          </mxGeometry>
        </mxCell>
        <mxCell id="24eTkejY1qJN395DCYq1-110" value="&lt;font&gt;32&lt;/font&gt;" style="text;html=1;align=center;verticalAlign=middle;whiteSpace=wrap;rounded=0;rotation=0;" vertex="1" parent="24eTkejY1qJN395DCYq1-101">
          <mxGeometry x="17" y="293" width="30" height="19" as="geometry" />
        </mxCell>
        <mxCell id="24eTkejY1qJN395DCYq1-111" value="" style="endArrow=none;html=1;rounded=0;" edge="1" parent="24eTkejY1qJN395DCYq1-101">
          <mxGeometry width="50" height="50" relative="1" as="geometry">
            <mxPoint x="66" y="270" as="sourcePoint" />
            <mxPoint x="66" y="320" as="targetPoint" />
          </mxGeometry>
        </mxCell>
        <mxCell id="24eTkejY1qJN395DCYq1-112" value="" style="endArrow=none;html=1;rounded=0;" edge="1" parent="24eTkejY1qJN395DCYq1-101">
          <mxGeometry width="50" height="50" relative="1" as="geometry">
            <mxPoint y="270" as="sourcePoint" />
            <mxPoint y="320" as="targetPoint" />
          </mxGeometry>
        </mxCell>
        <mxCell id="24eTkejY1qJN395DCYq1-113" value="" style="endArrow=classic;html=1;rounded=0;" edge="1" parent="24eTkejY1qJN395DCYq1-101" source="24eTkejY1qJN395DCYq1-110">
          <mxGeometry width="50" height="50" relative="1" as="geometry">
            <mxPoint x="55" y="303" as="sourcePoint" />
            <mxPoint x="65" y="303" as="targetPoint" />
          </mxGeometry>
        </mxCell>
        <mxCell id="24eTkejY1qJN395DCYq1-114" value="" style="endArrow=none;html=1;rounded=0;" edge="1" parent="24eTkejY1qJN395DCYq1-101">
          <mxGeometry width="50" height="50" relative="1" as="geometry">
            <mxPoint y="271" as="sourcePoint" />
            <mxPoint y="321" as="targetPoint" />
          </mxGeometry>
        </mxCell>
        <mxCell id="24eTkejY1qJN395DCYq1-115" style="edgeStyle=orthogonalEdgeStyle;rounded=0;orthogonalLoop=1;jettySize=auto;html=1;exitX=0;exitY=0.5;exitDx=0;exitDy=0;" edge="1" parent="24eTkejY1qJN395DCYq1-101" source="24eTkejY1qJN395DCYq1-116">
          <mxGeometry relative="1" as="geometry">
            <mxPoint x="455" y="303" as="targetPoint" />
            <mxPoint x="465" y="303" as="sourcePoint" />
          </mxGeometry>
        </mxCell>
        <mxCell id="24eTkejY1qJN395DCYq1-165" style="edgeStyle=orthogonalEdgeStyle;rounded=0;orthogonalLoop=1;jettySize=auto;html=1;" edge="1" parent="24eTkejY1qJN395DCYq1-101" source="24eTkejY1qJN395DCYq1-116">
          <mxGeometry relative="1" as="geometry">
            <mxPoint x="140" y="470" as="targetPoint" />
            <Array as="points">
              <mxPoint x="487" y="350" />
              <mxPoint x="120" y="350" />
              <mxPoint x="120" y="470" />
            </Array>
          </mxGeometry>
        </mxCell>
        <mxCell id="24eTkejY1qJN395DCYq1-116" value="&lt;font&gt;32&lt;/font&gt;" style="text;html=1;align=center;verticalAlign=middle;whiteSpace=wrap;rounded=0;rotation=0;" vertex="1" parent="24eTkejY1qJN395DCYq1-101">
          <mxGeometry x="472" y="293" width="30" height="19" as="geometry" />
        </mxCell>
        <mxCell id="24eTkejY1qJN395DCYq1-117" value="" style="endArrow=none;html=1;rounded=0;" edge="1" parent="24eTkejY1qJN395DCYq1-101">
          <mxGeometry width="50" height="50" relative="1" as="geometry">
            <mxPoint x="520" y="269" as="sourcePoint" />
            <mxPoint x="520" y="320" as="targetPoint" />
          </mxGeometry>
        </mxCell>
        <mxCell id="24eTkejY1qJN395DCYq1-118" value="" style="endArrow=none;html=1;rounded=0;" edge="1" parent="24eTkejY1qJN395DCYq1-101">
          <mxGeometry width="50" height="50" relative="1" as="geometry">
            <mxPoint x="455" y="269" as="sourcePoint" />
            <mxPoint x="455" y="319" as="targetPoint" />
          </mxGeometry>
        </mxCell>
        <mxCell id="24eTkejY1qJN395DCYq1-119" value="" style="endArrow=classic;html=1;rounded=0;" edge="1" parent="24eTkejY1qJN395DCYq1-101" source="24eTkejY1qJN395DCYq1-116">
          <mxGeometry width="50" height="50" relative="1" as="geometry">
            <mxPoint x="509" y="303" as="sourcePoint" />
            <mxPoint x="519" y="303" as="targetPoint" />
          </mxGeometry>
        </mxCell>
        <mxCell id="24eTkejY1qJN395DCYq1-120" value="" style="endArrow=none;html=1;rounded=0;" edge="1" parent="24eTkejY1qJN395DCYq1-101">
          <mxGeometry width="50" height="50" relative="1" as="geometry">
            <mxPoint x="455" y="270" as="sourcePoint" />
            <mxPoint x="455" y="320" as="targetPoint" />
          </mxGeometry>
        </mxCell>
        <mxCell id="24eTkejY1qJN395DCYq1-121" value="&lt;font style=&quot;font-size: 34px;&quot;&gt;......&lt;/font&gt;" style="text;html=1;align=center;verticalAlign=middle;whiteSpace=wrap;rounded=0;rotation=-180;" vertex="1" parent="24eTkejY1qJN395DCYq1-101">
          <mxGeometry x="208" y="283" width="179.5" height="57.5" as="geometry" />
        </mxCell>
        <mxCell id="24eTkejY1qJN395DCYq1-122" value="" style="rounded=0;whiteSpace=wrap;html=1;fillColor=none;rotation=-180;" vertex="1" parent="24eTkejY1qJN395DCYq1-101">
          <mxGeometry x="454" width="66" height="270" as="geometry" />
        </mxCell>
        <mxCell id="24eTkejY1qJN395DCYq1-123" value="" style="rounded=0;whiteSpace=wrap;html=1;fillColor=none;rotation=-180;" vertex="1" parent="24eTkejY1qJN395DCYq1-101">
          <mxGeometry x="65" width="66" height="270" as="geometry" />
        </mxCell>
        <mxCell id="24eTkejY1qJN395DCYq1-124" value="" style="rounded=0;whiteSpace=wrap;html=1;fillColor=none;rotation=-180;" vertex="1" parent="24eTkejY1qJN395DCYq1-101">
          <mxGeometry width="66" height="270" as="geometry" />
        </mxCell>
        <mxCell id="24eTkejY1qJN395DCYq1-125" value="" style="group" vertex="1" connectable="0" parent="1">
          <mxGeometry x="1019.5" y="2690" width="380.5" height="331" as="geometry" />
        </mxCell>
        <mxCell id="24eTkejY1qJN395DCYq1-126" value="" style="rounded=0;whiteSpace=wrap;html=1;strokeColor=none;" vertex="1" parent="24eTkejY1qJN395DCYq1-125">
          <mxGeometry x="0.5" y="51" width="315.5" height="280" as="geometry" />
        </mxCell>
        <mxCell id="24eTkejY1qJN395DCYq1-127" value="" style="endArrow=none;html=1;rounded=0;exitX=0;exitY=0;exitDx=0;exitDy=0;" edge="1" parent="24eTkejY1qJN395DCYq1-125" source="24eTkejY1qJN395DCYq1-126">
          <mxGeometry width="50" height="50" relative="1" as="geometry">
            <mxPoint x="0.5" y="51" as="sourcePoint" />
            <mxPoint x="316.5" y="51" as="targetPoint" />
          </mxGeometry>
        </mxCell>
        <mxCell id="24eTkejY1qJN395DCYq1-128" value="" style="endArrow=none;html=1;rounded=0;exitX=0;exitY=0;exitDx=0;exitDy=0;" edge="1" parent="24eTkejY1qJN395DCYq1-125">
          <mxGeometry width="50" height="50" relative="1" as="geometry">
            <mxPoint x="0.5" y="121" as="sourcePoint" />
            <mxPoint x="316.5" y="121" as="targetPoint" />
          </mxGeometry>
        </mxCell>
        <mxCell id="24eTkejY1qJN395DCYq1-129" value="" style="endArrow=none;html=1;rounded=0;exitX=0;exitY=0;exitDx=0;exitDy=0;" edge="1" parent="24eTkejY1qJN395DCYq1-125">
          <mxGeometry width="50" height="50" relative="1" as="geometry">
            <mxPoint x="0.5" y="191" as="sourcePoint" />
            <mxPoint x="316.5" y="191" as="targetPoint" />
          </mxGeometry>
        </mxCell>
        <mxCell id="24eTkejY1qJN395DCYq1-130" value="" style="endArrow=none;html=1;rounded=0;exitX=0;exitY=0;exitDx=0;exitDy=0;" edge="1" parent="24eTkejY1qJN395DCYq1-125">
          <mxGeometry width="50" height="50" relative="1" as="geometry">
            <mxPoint y="261" as="sourcePoint" />
            <mxPoint x="316" y="261" as="targetPoint" />
          </mxGeometry>
        </mxCell>
        <mxCell id="24eTkejY1qJN395DCYq1-131" value="" style="endArrow=none;html=1;rounded=0;exitX=0;exitY=0;exitDx=0;exitDy=0;" edge="1" parent="24eTkejY1qJN395DCYq1-125">
          <mxGeometry width="50" height="50" relative="1" as="geometry">
            <mxPoint x="0.5" y="331" as="sourcePoint" />
            <mxPoint x="316.5" y="331" as="targetPoint" />
          </mxGeometry>
        </mxCell>
        <mxCell id="24eTkejY1qJN395DCYq1-132" value="&lt;font style=&quot;font-size: 34px;&quot;&gt;......&lt;/font&gt;" style="text;html=1;align=center;verticalAlign=middle;whiteSpace=wrap;rounded=0;" vertex="1" parent="24eTkejY1qJN395DCYq1-125">
          <mxGeometry x="10.5" y="141" width="290" height="30" as="geometry" />
        </mxCell>
        <mxCell id="24eTkejY1qJN395DCYq1-133" value="" style="ellipse;whiteSpace=wrap;html=1;aspect=fixed;fillColor=#000000;" vertex="1" parent="24eTkejY1qJN395DCYq1-125">
          <mxGeometry x="12.5" y="67" width="40" height="40" as="geometry" />
        </mxCell>
        <mxCell id="24eTkejY1qJN395DCYq1-134" value="" style="endArrow=none;html=1;rounded=0;" edge="1" parent="24eTkejY1qJN395DCYq1-125">
          <mxGeometry width="50" height="50" relative="1" as="geometry">
            <mxPoint x="0.5" y="51" as="sourcePoint" />
            <mxPoint x="0.5" y="1" as="targetPoint" />
          </mxGeometry>
        </mxCell>
        <mxCell id="24eTkejY1qJN395DCYq1-135" value="&lt;font style=&quot;font-size: 17px; color: rgb(204, 204, 204);&quot;&gt;32&lt;/font&gt;" style="text;html=1;align=center;verticalAlign=middle;whiteSpace=wrap;rounded=0;" vertex="1" parent="24eTkejY1qJN395DCYq1-125">
          <mxGeometry x="128.25" y="2" width="60" height="30" as="geometry" />
        </mxCell>
        <mxCell id="24eTkejY1qJN395DCYq1-136" value="" style="endArrow=none;html=1;rounded=0;strokeColor=#CCCCCC;" edge="1" parent="24eTkejY1qJN395DCYq1-125">
          <mxGeometry width="50" height="50" relative="1" as="geometry">
            <mxPoint x="0.5" y="50" as="sourcePoint" />
            <mxPoint x="0.5" as="targetPoint" />
          </mxGeometry>
        </mxCell>
        <mxCell id="24eTkejY1qJN395DCYq1-137" value="" style="endArrow=none;html=1;rounded=0;" edge="1" parent="24eTkejY1qJN395DCYq1-125">
          <mxGeometry width="50" height="50" relative="1" as="geometry">
            <mxPoint x="315.28999999999996" y="51" as="sourcePoint" />
            <mxPoint x="315.28999999999996" y="1" as="targetPoint" />
          </mxGeometry>
        </mxCell>
        <mxCell id="24eTkejY1qJN395DCYq1-138" value="" style="endArrow=classic;html=1;rounded=0;exitX=1;exitY=0.5;exitDx=0;exitDy=0;strokeColor=#CCCCCC;" edge="1" parent="24eTkejY1qJN395DCYq1-125" source="24eTkejY1qJN395DCYq1-135">
          <mxGeometry width="50" height="50" relative="1" as="geometry">
            <mxPoint x="192.25" y="17" as="sourcePoint" />
            <mxPoint x="314.5" y="17" as="targetPoint" />
          </mxGeometry>
        </mxCell>
        <mxCell id="24eTkejY1qJN395DCYq1-139" value="" style="endArrow=classic;html=1;rounded=0;exitX=0;exitY=0.5;exitDx=0;exitDy=0;strokeColor=#CCCCCC;" edge="1" parent="24eTkejY1qJN395DCYq1-125" source="24eTkejY1qJN395DCYq1-135">
          <mxGeometry width="50" height="50" relative="1" as="geometry">
            <mxPoint x="101.5" y="16.5" as="sourcePoint" />
            <mxPoint x="1.5" y="16.5" as="targetPoint" />
          </mxGeometry>
        </mxCell>
        <mxCell id="24eTkejY1qJN395DCYq1-140" value="" style="endArrow=none;html=1;rounded=0;fillColor=#f5f5f5;strokeColor=#CCCCCC;" edge="1" parent="24eTkejY1qJN395DCYq1-125">
          <mxGeometry width="50" height="50" relative="1" as="geometry">
            <mxPoint x="316" y="50.289999999999964" as="sourcePoint" />
            <mxPoint x="316" y="0.2899999999999636" as="targetPoint" />
          </mxGeometry>
        </mxCell>
        <mxCell id="24eTkejY1qJN395DCYq1-141" value="&lt;font style=&quot;font-size: 17px; color: rgb(204, 204, 204);&quot;&gt;32&lt;/font&gt;" style="text;html=1;align=center;verticalAlign=middle;whiteSpace=wrap;rounded=0;" vertex="1" parent="24eTkejY1qJN395DCYq1-125">
          <mxGeometry x="320.5" y="161" width="60" height="30" as="geometry" />
        </mxCell>
        <mxCell id="24eTkejY1qJN395DCYq1-142" value="" style="endArrow=none;html=1;rounded=0;exitX=1;exitY=0;exitDx=0;exitDy=0;strokeColor=#CCCCCC;" edge="1" parent="24eTkejY1qJN395DCYq1-125" source="24eTkejY1qJN395DCYq1-126">
          <mxGeometry width="50" height="50" relative="1" as="geometry">
            <mxPoint x="316" y="49.289999999999964" as="sourcePoint" />
            <mxPoint x="380.5" y="51" as="targetPoint" />
          </mxGeometry>
        </mxCell>
        <mxCell id="24eTkejY1qJN395DCYq1-143" value="" style="endArrow=none;html=1;rounded=0;strokeColor=#CCCCCC;" edge="1" parent="24eTkejY1qJN395DCYq1-125">
          <mxGeometry width="50" height="50" relative="1" as="geometry">
            <mxPoint x="316" y="331" as="sourcePoint" />
            <mxPoint x="380.5" y="331" as="targetPoint" />
          </mxGeometry>
        </mxCell>
        <mxCell id="24eTkejY1qJN395DCYq1-144" value="" style="endArrow=classic;html=1;rounded=0;exitX=0.5;exitY=1;exitDx=0;exitDy=0;strokeColor=#CCCCCC;" edge="1" parent="24eTkejY1qJN395DCYq1-125" source="24eTkejY1qJN395DCYq1-141">
          <mxGeometry width="50" height="50" relative="1" as="geometry">
            <mxPoint x="507.75" y="16.289999999999964" as="sourcePoint" />
            <mxPoint x="350.5" y="331" as="targetPoint" />
          </mxGeometry>
        </mxCell>
        <mxCell id="24eTkejY1qJN395DCYq1-145" value="" style="endArrow=classic;html=1;rounded=0;exitX=0.5;exitY=0;exitDx=0;exitDy=0;strokeColor=#CCCCCC;" edge="1" parent="24eTkejY1qJN395DCYq1-125" source="24eTkejY1qJN395DCYq1-141">
          <mxGeometry width="50" height="50" relative="1" as="geometry">
            <mxPoint x="417" y="15.789999999999964" as="sourcePoint" />
            <mxPoint x="350.5" y="51" as="targetPoint" />
          </mxGeometry>
        </mxCell>
        <mxCell id="24eTkejY1qJN395DCYq1-146" value="" style="ellipse;whiteSpace=wrap;html=1;aspect=fixed;fillColor=#000000;" vertex="1" parent="24eTkejY1qJN395DCYq1-125">
          <mxGeometry x="70.5" y="67" width="40" height="40" as="geometry" />
        </mxCell>
        <mxCell id="24eTkejY1qJN395DCYq1-147" value="" style="ellipse;whiteSpace=wrap;html=1;aspect=fixed;fillColor=#000000;" vertex="1" parent="24eTkejY1qJN395DCYq1-125">
          <mxGeometry x="188.25" y="67" width="40" height="40" as="geometry" />
        </mxCell>
        <mxCell id="24eTkejY1qJN395DCYq1-148" value="" style="ellipse;whiteSpace=wrap;html=1;aspect=fixed;fillColor=#000000;" vertex="1" parent="24eTkejY1qJN395DCYq1-125">
          <mxGeometry x="250.5" y="67" width="40" height="40" as="geometry" />
        </mxCell>
        <mxCell id="24eTkejY1qJN395DCYq1-149" value="&lt;font style=&quot;font-size: 20px;&quot;&gt;......&lt;/font&gt;" style="text;html=1;align=center;verticalAlign=middle;whiteSpace=wrap;rounded=0;" vertex="1" parent="24eTkejY1qJN395DCYq1-125">
          <mxGeometry x="10.5" y="72" width="290" height="30" as="geometry" />
        </mxCell>
        <mxCell id="24eTkejY1qJN395DCYq1-150" value="" style="ellipse;whiteSpace=wrap;html=1;aspect=fixed;fillColor=#000000;" vertex="1" parent="24eTkejY1qJN395DCYq1-125">
          <mxGeometry x="14.5" y="211" width="40" height="40" as="geometry" />
        </mxCell>
        <mxCell id="24eTkejY1qJN395DCYq1-151" value="" style="ellipse;whiteSpace=wrap;html=1;aspect=fixed;fillColor=#000000;" vertex="1" parent="24eTkejY1qJN395DCYq1-125">
          <mxGeometry x="72.5" y="211" width="40" height="40" as="geometry" />
        </mxCell>
        <mxCell id="24eTkejY1qJN395DCYq1-152" value="" style="ellipse;whiteSpace=wrap;html=1;aspect=fixed;fillColor=#000000;" vertex="1" parent="24eTkejY1qJN395DCYq1-125">
          <mxGeometry x="190.25" y="211" width="40" height="40" as="geometry" />
        </mxCell>
        <mxCell id="24eTkejY1qJN395DCYq1-153" value="" style="ellipse;whiteSpace=wrap;html=1;aspect=fixed;fillColor=#000000;" vertex="1" parent="24eTkejY1qJN395DCYq1-125">
          <mxGeometry x="252.5" y="211" width="40" height="40" as="geometry" />
        </mxCell>
        <mxCell id="24eTkejY1qJN395DCYq1-154" value="&lt;font style=&quot;font-size: 20px;&quot;&gt;......&lt;/font&gt;" style="text;html=1;align=center;verticalAlign=middle;whiteSpace=wrap;rounded=0;" vertex="1" parent="24eTkejY1qJN395DCYq1-125">
          <mxGeometry x="12.5" y="216" width="290" height="30" as="geometry" />
        </mxCell>
        <mxCell id="24eTkejY1qJN395DCYq1-155" value="" style="ellipse;whiteSpace=wrap;html=1;aspect=fixed;fillColor=#000000;" vertex="1" parent="24eTkejY1qJN395DCYq1-125">
          <mxGeometry x="16.5" y="281" width="40" height="40" as="geometry" />
        </mxCell>
        <mxCell id="24eTkejY1qJN395DCYq1-156" value="" style="ellipse;whiteSpace=wrap;html=1;aspect=fixed;fillColor=#000000;" vertex="1" parent="24eTkejY1qJN395DCYq1-125">
          <mxGeometry x="74.5" y="281" width="40" height="40" as="geometry" />
        </mxCell>
        <mxCell id="24eTkejY1qJN395DCYq1-157" value="" style="ellipse;whiteSpace=wrap;html=1;aspect=fixed;fillColor=#000000;" vertex="1" parent="24eTkejY1qJN395DCYq1-125">
          <mxGeometry x="192.25" y="281" width="40" height="40" as="geometry" />
        </mxCell>
        <mxCell id="24eTkejY1qJN395DCYq1-158" value="" style="ellipse;whiteSpace=wrap;html=1;aspect=fixed;fillColor=#000000;" vertex="1" parent="24eTkejY1qJN395DCYq1-125">
          <mxGeometry x="254.5" y="281" width="40" height="40" as="geometry" />
        </mxCell>
        <mxCell id="24eTkejY1qJN395DCYq1-159" value="&lt;font style=&quot;font-size: 20px;&quot;&gt;......&lt;/font&gt;" style="text;html=1;align=center;verticalAlign=middle;whiteSpace=wrap;rounded=0;" vertex="1" parent="24eTkejY1qJN395DCYq1-125">
          <mxGeometry x="14.5" y="286" width="290" height="30" as="geometry" />
        </mxCell>
        <mxCell id="24eTkejY1qJN395DCYq1-163" style="rounded=0;orthogonalLoop=1;jettySize=auto;html=1;exitX=0;exitY=1;exitDx=0;exitDy=0;entryX=1;entryY=1;entryDx=0;entryDy=0;dashed=1;dashPattern=1 4;endArrow=none;startFill=0;" edge="1" parent="1" source="24eTkejY1qJN395DCYq1-87" target="24eTkejY1qJN395DCYq1-124">
          <mxGeometry relative="1" as="geometry" />
        </mxCell>
        <mxCell id="24eTkejY1qJN395DCYq1-164" style="rounded=0;orthogonalLoop=1;jettySize=auto;html=1;exitX=1;exitY=1;exitDx=0;exitDy=0;entryX=0;entryY=1;entryDx=0;entryDy=0;dashed=1;dashPattern=1 4;endArrow=none;startFill=0;" edge="1" parent="1" source="24eTkejY1qJN395DCYq1-87" target="24eTkejY1qJN395DCYq1-122">
          <mxGeometry relative="1" as="geometry" />
        </mxCell>
      </root>
    </mxGraphModel>
  </diagram>
</mxfile>
